<svg version="1.1" id="Layer_1" xmlns="http://www.w3.org/2000/svg" xmlns:xlink="http://www.w3.org/1999/xlink" x="0px" y="0px"
	 width="100%" viewBox="0 0 456 101" enable-background="new 0 0 456 101" xml:space="preserve">
<path fill="#040303" opacity="1.000000" stroke="none" 
	d="
M305.000000,102.000000 
	C203.333344,102.000000 102.166687,102.000000 1.000027,102.000000 
	C1.000018,68.333351 1.000018,34.666698 1.000009,1.000036 
	C152.999969,1.000024 304.999939,1.000024 456.999939,1.000012 
	C456.999939,34.666630 456.999939,68.333260 456.999969,101.999939 
	C406.500000,102.000000 356.000000,102.000000 305.000000,102.000000 
M74.148567,27.132654 
	C74.148567,27.132654 74.245140,27.172060 73.722916,27.380264 
	C73.633774,27.724478 73.544624,28.068693 73.385117,28.467779 
	C73.385117,28.467779 73.473572,28.437208 72.750290,28.371655 
	C71.813843,28.575151 70.877388,28.778648 70.144890,28.152040 
	C70.308449,24.397711 70.506592,20.627293 65.481361,18.556326 
	C63.823555,14.353157 60.420315,12.612525 56.218643,12.081143 
	C43.368496,10.455998 33.476128,20.508997 35.369980,33.487389 
	C36.732845,42.826996 41.574936,50.076923 49.547199,55.176964 
	C53.491402,57.700165 53.594181,59.116749 49.862053,62.200268 
	C48.714169,63.148659 47.501072,64.082108 46.178844,64.745270 
	C36.618423,69.540314 29.200878,69.014122 24.699844,59.292721 
	C24.311680,58.454357 21.883001,57.696133 20.972971,58.121578 
	C17.898151,59.559097 14.393750,60.960140 12.285774,63.427746 
	C3.982282,73.147842 7.581771,88.977791 18.966442,95.602943 
	C29.900402,101.927452 39.914051,101.796082 49.204487,93.518608 
	C55.287205,88.099091 60.420639,81.404160 65.091637,74.665245 
	C70.477638,66.894775 70.053444,66.600746 79.070969,68.878288 
	C78.784470,77.077332 78.590790,85.247032 85.973167,91.781136 
	C89.401955,95.859322 94.308762,96.170120 98.213066,94.223511 
	C103.000916,91.836365 106.919136,87.705048 111.653542,84.743736 
	C113.682587,86.851479 115.711639,88.959221 117.997589,91.757584 
	C123.594215,95.938736 128.743240,96.398682 133.846695,92.455688 
	C136.666870,90.276779 138.820908,87.235641 141.932709,84.783066 
	C143.881226,86.792648 145.829727,88.802231 148.045532,91.530624 
	C152.947495,96.003174 158.434265,96.539345 163.521469,92.128891 
	C167.070358,89.052109 169.782516,85.010178 172.938690,82.200378 
	C175.555008,84.829811 178.171326,87.459236 181.055725,90.741150 
	C185.024780,92.182449 188.922897,94.570381 192.977203,94.874260 
	C202.334702,95.575653 209.896454,91.122566 216.892609,84.839783 
	C218.627594,86.605583 220.362564,88.371384 222.284256,90.781288 
	C225.588348,92.203094 228.857208,94.713875 232.203812,94.822212 
	C239.387329,95.054749 244.217117,90.341019 248.751450,85.001953 
	C250.756943,86.857651 252.762436,88.713341 255.041779,91.325005 
	C259.583862,95.538643 264.157104,96.503914 269.415680,93.219437 
	C272.982391,90.991676 275.812775,87.585037 279.573364,85.057610 
	C281.412506,87.005104 283.251678,88.952591 285.366455,91.559860 
	C289.741150,95.501610 294.456360,96.372429 299.233612,93.290009 
	C302.199768,91.376137 304.530548,88.477493 307.625824,86.417870 
	C308.976013,87.668175 310.326202,88.918480 311.920837,90.778603 
	C312.274323,90.911522 312.627808,91.044441 312.797913,91.082550 
	C312.797913,91.082550 312.705719,91.267258 312.855835,91.963196 
	C316.066406,95.476685 320.228241,95.959755 324.161102,94.253731 
	C327.677338,92.728424 330.678528,90.015823 334.485168,88.136131 
	C335.653717,89.106194 336.822266,90.076256 338.178650,91.737450 
	C340.916901,95.151306 344.487152,95.744766 348.443359,94.577805 
	C352.500275,93.381149 354.096649,90.225258 354.396057,86.306778 
	C354.698364,82.350258 354.734222,78.372772 355.060089,74.418755 
	C355.775116,65.742943 360.136841,59.829437 367.039307,58.864956 
	C365.805298,63.339451 364.329041,67.763969 363.393311,72.299995 
	C361.940491,79.342621 361.382416,86.313164 368.934937,91.705086 
	C372.173920,95.527008 376.279999,95.711929 380.671051,94.406242 
	C387.641541,92.333542 391.875854,87.171722 395.788879,81.637817 
	C398.562500,84.405228 401.336151,87.172638 404.070648,90.661430 
	C410.749725,95.821564 418.026642,96.072456 425.764099,93.509422 
	C435.632904,90.240379 441.826935,82.700394 448.399902,74.693489 
	C448.621155,74.178276 448.842407,73.663063 449.215668,72.459694 
	C450.500031,69.965485 451.784393,67.471275 453.509918,64.559303 
	C452.904144,63.515308 452.504822,62.245441 451.654846,61.468616 
	C448.823029,58.880386 445.829559,56.469059 442.835083,53.202435 
	C442.760193,52.158421 442.685272,51.114410 443.149078,49.870415 
	C442.816742,49.237148 442.484406,48.603878 442.004944,47.256615 
	C441.026459,46.052574 440.048004,44.848534 439.127136,42.956696 
	C432.438385,33.202675 421.885040,30.720858 411.264099,36.402081 
	C402.849335,40.903214 398.045624,48.218636 394.905518,56.966530 
	C393.277649,61.501530 390.929382,65.543121 385.001740,64.046928 
	C385.908386,60.418705 386.734558,56.768032 387.739441,53.167233 
	C389.477905,46.937920 388.239624,42.339024 383.558441,39.543724 
	C381.952454,35.156208 378.334473,32.937286 374.212830,33.802124 
	C369.704254,34.748165 365.226624,36.804722 361.307831,39.282497 
	C358.368530,41.140953 356.957794,41.253471 355.141602,38.274075 
	C351.407928,32.149117 348.569550,31.980679 345.241974,38.275890 
	C342.083252,44.251690 339.837616,50.716297 337.286041,57.004765 
	C335.533905,61.323101 333.644043,65.348976 327.899170,64.035141 
	C328.232056,61.935829 328.372681,59.783077 328.938232,57.748447 
	C330.082153,53.632919 331.749542,49.644150 332.639984,45.483040 
	C333.309082,42.356289 333.929138,38.666477 329.010010,36.963047 
	C325.963074,32.542343 321.550842,32.259956 318.508728,37.294399 
	C314.797516,43.436054 312.141357,50.230679 309.213257,56.824764 
	C307.158447,61.452217 304.685089,65.294144 298.846741,64.164032 
	C299.289185,62.248856 299.498749,60.240456 300.220612,58.437126 
	C301.931396,54.163105 304.119080,50.070087 305.667877,45.744179 
	C306.936066,42.202106 307.660522,38.386868 302.147766,36.676739 
	C299.600464,32.915142 297.431915,32.872055 292.597656,35.530262 
	C290.745422,36.548737 287.559753,37.462524 286.145294,36.573231 
	C278.069122,31.495697 270.562012,33.072498 263.296082,37.804924 
	C256.304749,42.358486 252.598984,49.415375 249.855057,57.038811 
	C247.680191,63.081223 244.998001,65.004539 238.851028,64.050491 
	C241.403030,55.530182 243.647552,46.901115 246.609924,38.525955 
	C248.756744,32.456512 252.022751,26.792171 254.466171,20.814936 
	C255.933380,17.225740 256.464722,13.502307 251.297012,11.686837 
	C251.153259,11.196631 251.009521,10.706427 250.836105,9.481399 
	C248.392410,6.464546 245.824203,5.809992 243.006943,8.997532 
	C243.006943,8.997532 243.060181,9.065451 242.311188,8.984901 
	C240.890945,10.675505 239.470703,12.366109 237.997284,14.006181 
	C237.997284,14.006181 238.059509,14.043504 237.367523,14.121787 
	C236.432037,15.436139 235.209991,16.631634 234.607574,18.084118 
	C230.676468,27.562475 226.830887,37.077377 223.080200,46.628571 
	C222.331604,48.534866 221.690536,49.981270 219.107391,48.321430 
	C219.084564,47.870499 219.061752,47.419571 219.451630,46.639969 
	C219.011459,46.089207 218.571289,45.538441 217.815979,44.504997 
	C217.538132,44.012859 217.260284,43.520721 217.024963,42.298134 
	C216.038803,41.520447 215.052658,40.742760 214.011948,40.002140 
	C214.011948,40.002140 214.033478,39.939785 214.018997,39.200005 
	C212.659225,38.151016 211.299469,37.102024 209.995758,35.998722 
	C209.995758,35.998722 209.952713,36.063324 209.866287,35.330101 
	C204.250732,30.776100 193.396469,31.006287 188.554520,36.004620 
	C188.554520,36.004620 188.114349,36.080624 187.388443,35.996933 
	C186.378098,36.788441 185.367767,37.579948 184.208023,38.224300 
	C184.208023,38.224300 184.309021,38.408092 183.603073,38.252125 
	C182.761261,39.208427 181.919449,40.164730 180.819412,41.619915 
	C180.257935,42.105808 179.696457,42.591702 178.444885,43.131409 
	C177.943893,44.060875 177.442886,44.990337 176.994751,45.981983 
	C176.994751,45.981983 176.917267,45.956329 176.439316,46.160015 
	C176.315079,46.468353 176.190842,46.776691 176.000671,47.012215 
	C176.000671,47.012215 176.084290,47.063560 175.382874,47.124580 
	C172.843658,51.477795 170.304443,55.831005 167.765213,60.184219 
	C167.189774,60.000587 166.614334,59.816956 166.038895,59.633324 
	C166.308167,57.692387 166.246002,55.630810 166.901367,53.830410 
	C170.698151,43.399906 174.618195,33.013397 178.589523,22.647633 
	C181.026672,16.286270 178.158890,9.519545 171.616013,7.608516 
	C170.020660,7.142548 167.893082,8.498720 166.000610,8.999452 
	C166.000610,8.999452 166.015915,9.014643 165.276794,8.959152 
	C163.846115,10.633401 162.415436,12.307650 161.000610,13.999825 
	C161.000610,13.999825 160.981430,13.986516 160.295090,14.100614 
	C158.886536,17.428909 157.477966,20.757206 156.030273,24.539776 
	C156.030273,24.539776 155.836823,24.952663 155.158127,25.131044 
	C153.650909,28.878475 152.143707,32.625904 150.493469,36.728947 
	C149.404068,35.788414 148.572647,35.022755 147.692276,34.318291 
	C142.015259,29.775604 129.405945,31.878532 125.007812,37.999706 
	C125.007812,37.999706 125.083038,38.066685 124.576599,38.154541 
	C124.383080,38.426270 124.189568,38.697998 123.673424,39.502033 
	C122.754814,40.325657 121.836205,41.149281 120.441460,42.116394 
	C120.140816,42.320328 119.992874,42.603931 120.006744,43.009987 
	C120.006744,43.009987 119.963142,43.006550 119.490303,43.193295 
	C119.357918,43.490856 119.225525,43.788418 118.998878,44.005413 
	C118.998878,44.005413 119.089333,44.092102 118.392410,44.160309 
	C117.947388,45.127888 117.502365,46.095463 116.997757,47.006214 
	C116.997757,47.006214 117.066849,47.049793 116.362442,47.103622 
	C114.586960,51.413837 112.811470,55.724052 111.000000,59.999847 
	C111.000000,59.999847 111.038757,60.031322 110.550507,60.204163 
	C110.389519,60.497074 110.228539,60.789986 110.000938,61.000763 
	C110.000938,61.000763 110.075264,61.076077 109.326981,61.023273 
	C106.604050,61.342709 103.881119,61.662144 100.983856,61.141579 
	C101.085037,59.434906 101.186218,57.728233 101.825394,55.942390 
	C101.837334,55.291153 101.849274,54.639912 101.841080,53.315620 
	C101.959160,52.883801 102.077248,52.451981 102.754181,51.937866 
	C102.775345,51.284660 102.796501,50.631451 102.844307,49.306885 
	C102.965302,48.876900 103.086296,48.446918 103.841835,47.865334 
	C104.163490,46.236889 104.485146,44.608440 104.854576,42.456055 
	C104.942352,42.304230 105.030121,42.152405 105.781265,41.877159 
	C108.199760,38.845718 110.618263,35.814278 113.550346,32.822670 
	C113.695457,32.914467 113.840569,33.006264 114.111977,33.760086 
	C115.410622,33.565556 116.709259,33.371025 118.407928,32.938400 
	C118.407928,32.938400 118.869987,32.881847 119.645302,32.985809 
	C120.705872,31.573214 121.766449,30.160618 122.895714,28.340536 
	C122.895714,28.340536 123.156021,28.019600 123.820908,27.884092 
	C124.196045,25.927139 124.571182,23.970186 124.845695,21.214018 
	C124.881638,20.142076 124.917572,19.070133 125.448029,17.618622 
	C125.002556,16.739216 124.557083,15.859811 123.864296,14.676491 
	C123.864296,14.676491 123.831894,14.286008 123.952141,13.518991 
	C123.316574,12.235829 122.891884,10.781506 122.011612,9.696968 
	C115.770897,2.008119 107.456139,2.759522 99.335312,4.994161 
	C94.635712,6.287370 89.338982,7.658673 87.007355,13.001840 
	C87.007355,13.001840 87.117393,13.132698 86.416779,13.090368 
	C85.623474,14.082250 84.830170,15.074131 83.692444,16.631231 
	C80.835289,19.771013 77.978134,22.910795 74.646584,26.297932 
	C74.490875,26.609379 74.335175,26.920826 74.148567,27.132654 
M340.609650,15.154462 
	C340.136383,14.698637 339.641510,14.263050 339.193237,13.783854 
	C334.865448,9.157793 325.349762,8.803071 321.280945,13.123506 
	C317.062469,17.602852 318.121338,23.952150 324.130005,29.560219 
	C327.969177,33.510010 332.644592,33.730545 337.491974,32.241470 
	C344.845795,29.982439 346.632263,21.033123 340.609650,15.154462 
z"/>
<path fill="#F97D95" opacity="1.000000" stroke="none" 
	d="
M19.050068,94.847191 
	C7.581771,88.977791 3.982282,73.147842 12.285774,63.427746 
	C14.393750,60.960140 17.898151,59.559097 20.972971,58.121578 
	C21.883001,57.696133 24.311680,58.454357 24.699844,59.292721 
	C29.200878,69.014122 36.618423,69.540314 46.178844,64.745270 
	C47.501072,64.082108 48.714169,63.148659 49.862053,62.200268 
	C53.594181,59.116749 53.491402,57.700165 49.547199,55.176964 
	C41.574936,50.076923 36.732845,42.826996 35.369980,33.487389 
	C33.476128,20.508997 43.368496,10.455998 56.218643,12.081143 
	C60.420315,12.612525 63.823555,14.353157 65.717224,19.241108 
	C65.826660,22.050119 67.086006,24.871229 63.297085,25.140789 
	C58.682240,25.469110 55.311649,27.498497 54.486324,32.319759 
	C53.533939,37.883259 53.991169,43.158901 58.958466,47.347359 
	C60.320827,47.125278 62.132774,46.984482 62.730541,46.059242 
	C66.462509,40.282761 69.923088,34.330944 73.473572,28.437210 
	C73.473572,28.437208 73.385117,28.467779 73.636078,28.297443 
	C74.006401,27.808758 74.125771,27.490410 74.245140,27.172062 
	C74.245140,27.172060 74.148567,27.132654 74.423508,27.086792 
	C74.839287,26.710812 74.980133,26.380695 75.120979,26.050579 
	C77.978134,22.910795 80.835289,19.771013 84.163773,16.250078 
	C85.462532,14.956850 86.289963,14.044774 87.117393,13.132698 
	C87.117393,13.132698 87.007355,13.001840 87.407021,13.002417 
	C91.681862,10.780811 95.332138,7.911813 99.478676,6.470073 
	C108.318642,3.396435 115.964561,3.959645 120.024811,11.251573 
	C119.986977,14.700818 120.317856,17.740566 119.834023,20.644573 
	C118.895836,26.275606 114.790291,29.887911 110.466377,28.654015 
	C106.917084,27.641165 105.035965,28.942755 103.606514,31.704340 
	C99.360878,39.906601 96.506569,48.561142 97.072479,57.874634 
	C97.199280,59.961617 99.619255,61.909260 101.392227,63.992428 
	C104.559044,63.067898 107.317154,62.071991 110.075264,61.076080 
	C110.075264,61.076077 110.000938,61.000763 110.300819,60.989136 
	C110.746719,60.662113 110.892738,60.346718 111.038757,60.031322 
	C111.038757,60.031322 111.000000,59.999847 111.342651,59.873432 
	C113.479149,55.514606 115.272995,51.282200 117.066849,47.049793 
	C117.066849,47.049793 116.997757,47.006214 117.316422,46.908226 
	C118.119843,45.904194 118.604584,44.998146 119.089333,44.092102 
	C119.089333,44.092102 118.998878,44.005413 119.292168,43.966572 
	C119.711349,43.620670 119.837242,43.313610 119.963135,43.006546 
	C119.963142,43.006550 120.006744,43.009987 120.251968,42.934502 
	C120.637337,42.563648 120.777466,42.268276 120.917603,41.972900 
	C121.836205,41.149281 122.754814,40.325657 124.104050,39.217697 
	C124.717468,38.644474 124.900253,38.355579 125.083038,38.066685 
	C125.083038,38.066685 125.007812,37.999706 125.398071,37.990143 
	C134.403030,32.825119 142.912781,31.120283 151.544144,40.085106 
	C153.183655,34.305550 154.510239,29.629107 155.836823,24.952663 
	C155.836823,24.952663 156.030273,24.539776 156.337173,24.118782 
	C158.089859,20.460697 159.535645,17.223606 160.981430,13.986515 
	C160.981430,13.986516 161.000610,13.999825 161.296448,13.870895 
	C163.066818,12.166193 164.541367,10.590419 166.015915,9.014644 
	C166.015915,9.014643 166.000610,8.999452 166.417694,9.021370 
	C170.219482,8.170182 172.962204,8.667747 174.093109,12.885269 
	C171.086044,21.361990 168.193146,29.444962 165.181610,37.483486 
	C162.746902,43.982292 159.991928,50.366341 157.729248,56.922176 
	C156.582153,60.245735 155.965591,63.938953 161.444427,65.040863 
	C166.481903,65.373291 169.297607,62.710247 171.111572,58.906834 
	C172.952621,55.046589 174.441284,51.018269 176.084290,47.063560 
	C176.084290,47.063560 176.000671,47.012215 176.288147,46.965687 
	C176.689499,46.598213 176.803391,46.277271 176.917267,45.956329 
	C176.917267,45.956329 176.994751,45.981983 177.265579,45.846191 
	C178.069260,44.832802 178.602127,43.955196 179.134979,43.077591 
	C179.696457,42.591702 180.257935,42.105808 181.256897,41.315407 
	C182.565918,40.143299 183.437469,39.275700 184.309021,38.408096 
	C184.309021,38.408092 184.208023,38.224300 184.605438,38.257759 
	C186.040024,37.554356 187.077194,36.817490 188.114349,36.080624 
	C188.114349,36.080624 188.554520,36.004620 189.135803,35.877747 
	C196.505646,33.047802 203.252151,33.067520 209.952713,36.063324 
	C209.952713,36.063324 209.995758,35.998722 210.075485,36.330383 
	C211.447968,37.754623 212.740723,38.847206 214.033478,39.939785 
	C214.033478,39.939785 214.011948,40.002140 214.034454,40.205063 
	C214.056946,40.407990 214.043427,40.850906 214.074127,41.273781 
	C216.457153,49.653637 214.874146,56.562366 208.251480,61.807438 
	C201.657501,67.029770 194.097824,66.062469 186.102707,64.523384 
	C186.751541,66.602966 187.498932,68.650146 188.886139,69.273514 
	C190.697754,70.087601 193.048111,69.598389 195.110596,69.976166 
	C205.619110,71.900955 213.217422,67.608994 219.256027,59.007370 
	C220.585205,57.266140 221.765625,55.664383 222.473755,53.875664 
	C227.721771,40.619171 232.875900,27.325497 238.059509,14.043504 
	C238.059509,14.043504 237.997284,14.006181 238.329071,13.914280 
	C240.127289,12.236734 241.593735,10.651090 243.060181,9.065448 
	C243.060181,9.065451 243.006943,8.997532 243.447739,9.035001 
	C246.214279,9.453719 248.540024,9.834970 250.865768,10.216221 
	C251.009521,10.706427 251.153259,11.196631 251.249329,12.390771 
	C249.503128,17.374388 247.689041,21.612423 246.128906,25.941977 
	C242.277817,36.629204 238.376602,47.304302 234.869171,58.105598 
	C233.890900,61.118160 234.125656,64.606552 238.824417,64.882248 
	C244.998001,65.004539 247.680191,63.081223 249.855057,57.038811 
	C252.598984,49.415375 256.304749,42.358486 263.296082,37.804924 
	C270.562012,33.072498 278.069122,31.495697 286.145294,36.573231 
	C287.559753,37.462524 290.745422,36.548737 292.597656,35.530262 
	C297.431915,32.872055 299.600464,32.915142 302.128815,37.468971 
	C301.492584,40.295349 301.007446,42.381508 300.231445,44.353176 
	C298.429962,48.930351 296.189423,53.357273 294.703552,58.028542 
	C293.639221,61.374722 293.950043,64.750183 298.833771,64.962608 
	C304.685089,65.294144 307.158447,61.452217 309.213257,56.824764 
	C312.141357,50.230679 314.797516,43.436054 318.508728,37.294399 
	C321.550842,32.259956 325.963074,32.542343 328.928833,37.697624 
	C327.826324,42.437866 326.737457,46.427891 325.805023,50.454155 
	C325.063385,53.656712 323.976257,56.924591 324.101593,60.121964 
	C324.165253,61.746037 326.566040,63.278500 327.910278,64.852371 
	C333.644043,65.348976 335.533905,61.323101 337.286041,57.004765 
	C339.837616,50.716297 342.083252,44.251690 345.241974,38.275890 
	C348.569550,31.980679 351.407928,32.149117 355.141602,38.274075 
	C356.957794,41.253471 358.368530,41.140953 361.307831,39.282497 
	C365.226624,36.804722 369.704254,34.748165 374.212830,33.802124 
	C378.334473,32.937286 381.952454,35.156208 383.779602,40.231808 
	C383.797455,43.706127 383.829498,46.535686 383.326691,49.266781 
	C382.792053,52.170834 381.410736,54.936356 381.023651,57.845459 
	C380.616425,60.906078 380.273193,64.455933 384.989868,64.847565 
	C390.929382,65.543121 393.277649,61.501530 394.905518,56.966530 
	C398.045624,48.218636 402.849335,40.903214 411.264099,36.402081 
	C421.885040,30.720858 432.438385,33.202675 438.777893,43.591576 
	C438.292786,44.867046 437.952118,45.541348 438.051147,46.143269 
	C440.186768,59.116623 426.360657,68.023796 415.795410,65.192429 
	C413.818970,64.662758 411.766205,64.417740 409.300232,63.957706 
	C409.665649,67.542061 410.261993,69.731071 414.012329,69.350166 
	C415.778809,69.170753 417.688049,69.442192 419.409088,69.937988 
	C426.378998,71.945908 431.931488,69.212746 437.451019,65.002716 
	C439.295837,63.805740 440.945862,62.716194 442.243347,61.302994 
	C445.617645,57.627739 446.866180,57.839748 448.786926,62.933582 
	C443.863434,69.145363 439.605591,75.495018 434.506012,81.075478 
	C426.319885,90.033562 415.818329,92.381340 404.109772,89.940041 
	C401.336151,87.172638 398.562500,84.405228 395.555328,81.025497 
	C394.786377,78.502174 394.250977,76.591164 393.443268,73.708092 
	C387.373138,84.046585 380.894989,91.947945 368.603088,91.020996 
	C361.382416,86.313164 361.940491,79.342621 363.393311,72.299995 
	C364.329041,67.763969 365.805298,63.339451 367.058289,58.072548 
	C365.550018,56.184235 363.653442,53.893738 362.568573,54.229073 
	C359.913910,55.049629 357.044220,56.602741 355.318390,58.722061 
	C350.808197,64.260651 350.356567,71.151169 350.260254,78.006317 
	C350.112610,88.517662 348.181458,90.569733 337.990814,91.046318 
	C336.822266,90.076256 335.653717,89.106194 334.134003,87.617188 
	C333.380219,85.034233 332.977600,82.970215 332.387238,79.943626 
	C327.468048,87.397758 321.138947,91.344185 312.705719,91.267258 
	C312.705719,91.267258 312.797913,91.082550 312.741486,90.886215 
	C312.348846,90.516182 312.012604,90.342476 311.676392,90.168777 
	C310.326202,88.918480 308.976013,87.668175 307.327667,85.839539 
	C306.509125,83.135300 305.988739,81.009384 305.295685,78.178116 
	C300.106537,85.776695 294.750641,91.959793 285.090820,90.900085 
	C283.251678,88.952591 281.412506,87.005104 279.263245,84.454758 
	C278.953094,80.990692 278.953094,78.129471 278.953094,73.850082 
	C272.408295,83.349815 267.161591,92.481262 254.767929,90.569038 
	C252.762436,88.713341 250.756943,86.857651 248.422760,84.500504 
	C247.784470,81.958969 247.474838,79.918892 247.095688,77.420609 
	C234.366074,91.061859 232.800827,91.839401 222.097549,90.137184 
	C220.362564,88.371384 218.627594,86.605583 216.697815,84.369141 
	C216.623108,81.583687 216.743179,79.268867 216.872589,76.773758 
	C211.722839,80.693169 207.383575,84.563545 202.510056,87.566956 
	C195.809357,91.696396 188.254776,91.136841 180.787643,90.088669 
	C178.171326,87.459236 175.555008,84.829811 172.741150,81.529480 
	C171.855148,78.984802 171.166672,77.111015 170.208420,74.503014 
	C164.479782,83.531830 159.571152,92.139259 147.778244,90.811813 
	C145.829727,88.802231 143.881226,86.792648 141.676437,84.360695 
	C141.420166,81.460640 141.420166,78.982964 141.420166,76.505280 
	C140.987045,76.313248 140.553925,76.121216 140.120804,75.929192 
	C134.985016,84.617943 129.098175,92.129562 117.740685,91.066963 
	C115.711639,88.959221 113.682587,86.851479 111.373566,84.143341 
	C110.588707,81.614830 110.083817,79.686729 109.400925,77.078835 
	C103.332695,85.816704 96.712128,91.948257 86.063438,90.992668 
	C78.590790,85.247032 78.784470,77.077332 79.240875,68.121826 
	C78.787613,66.242615 78.381546,64.399773 77.499985,64.133987 
	C74.993301,63.378223 72.214409,63.542595 69.688530,62.828701 
	C66.669914,61.975536 65.283043,63.158340 63.772568,65.631096 
	C60.236298,71.420227 56.687023,77.270798 52.462986,82.552650 
	C47.311024,88.994827 40.912735,94.270287 32.373287,95.337402 
	C28.020603,95.881317 23.496620,95.054443 19.050068,94.847191 
M200.819412,49.339825 
	C199.292969,46.007473 196.349258,45.132786 193.532501,46.600651 
	C191.552551,47.632431 189.664627,50.049141 189.139725,52.191467 
	C188.845642,53.391678 191.411316,55.292583 193.496918,57.123783 
	C198.098328,57.007423 200.963181,55.080013 200.819412,49.339825 
M416.719818,57.084454 
	C421.246857,56.947422 424.297607,55.297062 423.913025,49.348774 
	C422.736267,45.871357 419.695160,45.208389 417.159668,46.445427 
	C415.006104,47.496128 413.094086,50.010017 412.248444,52.308193 
	C411.898651,53.258816 414.608826,55.335369 416.719818,57.084454 
M141.928177,53.798222 
	C139.689438,52.636650 137.444656,50.510666 135.213303,50.524700 
	C131.209106,50.549881 127.523445,55.400627 127.154922,59.992256 
	C126.898026,63.193153 127.604866,65.977646 132.118698,66.882416 
	C139.434250,66.802048 144.029907,61.074875 141.928177,53.798222 
M279.211212,53.744595 
	C277.812500,50.360764 275.189087,49.688122 271.974579,50.611599 
	C267.733948,51.829857 264.094177,56.259041 264.243073,60.408318 
	C264.351471,63.428089 265.075714,66.387489 269.740112,67.029625 
	C277.177124,66.082451 280.630615,61.612156 279.211212,53.744595 
M76.845818,55.887341 
	C78.646751,55.344479 81.648239,55.232025 82.025795,54.178875 
	C83.206718,50.884903 83.397133,47.235828 84.105927,43.068161 
	C86.227539,38.725513 91.456566,35.614262 89.498398,28.607162 
	C79.348434,34.955933 75.945099,45.150356 70.026123,54.608192 
	C72.832848,55.173729 74.411758,55.491867 76.845818,55.887341 
z"/>
<path fill="#F4EBEC" opacity="1.000000" stroke="none" 
	d="
M19.008255,95.225067 
	C23.496620,95.054443 28.020603,95.881317 32.373287,95.337402 
	C40.912735,94.270287 47.311024,88.994827 52.462986,82.552650 
	C56.687023,77.270798 60.236298,71.420227 63.772568,65.631096 
	C65.283043,63.158340 66.669914,61.975536 69.688530,62.828701 
	C72.214409,63.542595 74.993301,63.378223 77.499985,64.133987 
	C78.381546,64.399773 78.787613,66.242615 79.192169,67.660248 
	C70.053444,66.600746 70.477638,66.894775 65.091637,74.665245 
	C60.420639,81.404160 55.287205,88.099091 49.204487,93.518608 
	C39.914051,101.796082 29.900402,101.927452 19.008255,95.225067 
z"/>
<path fill="#F47D94" opacity="1.000000" stroke="none" 
	d="
M323.903046,28.846394 
	C318.121338,23.952150 317.062469,17.602852 321.280945,13.123506 
	C325.349762,8.803071 334.865448,9.157793 339.193237,13.783854 
	C339.641510,14.263050 340.136383,14.698637 340.492371,15.742014 
	C339.165039,25.822182 336.059723,29.096037 328.604370,28.802395 
	C327.040253,28.740791 325.470306,28.827843 323.903046,28.846394 
z"/>
<path fill="#F4ECED" opacity="1.000000" stroke="none" 
	d="
M404.090210,90.300735 
	C415.818329,92.381340 426.319885,90.033562 434.506012,81.075478 
	C439.605591,75.495018 443.863434,69.145363 449.139282,62.947189 
	C450.875946,63.494675 451.972382,64.235870 453.068787,64.977066 
	C451.784393,67.471275 450.500031,69.965485 448.879700,72.924110 
	C448.311951,73.896400 448.080170,74.404266 447.848389,74.912140 
	C441.826935,82.700394 435.632904,90.240379 425.764099,93.509422 
	C418.026642,96.072456 410.749725,95.821564 404.090210,90.300735 
z"/>
<path fill="#F6ECEC" opacity="1.000000" stroke="none" 
	d="
M100.983513,63.921051 
	C99.619255,61.909260 97.199280,59.961617 97.072479,57.874634 
	C96.506569,48.561142 99.360878,39.906601 103.606514,31.704340 
	C105.035965,28.942755 106.917084,27.641165 110.466377,28.654015 
	C114.790291,29.887911 118.895836,26.275606 119.834023,20.644573 
	C120.317856,17.740566 119.986977,14.700818 120.332893,11.371647 
	C121.705009,12.109262 122.768448,13.197635 123.831894,14.286009 
	C123.831894,14.286008 123.864296,14.676491 123.945915,15.153736 
	C124.336197,16.420052 124.644852,17.209122 124.953506,17.998192 
	C124.917572,19.070133 124.881638,20.142076 124.671524,21.881821 
	C124.050247,24.372950 123.603134,26.196274 123.156021,28.019600 
	C123.156021,28.019600 122.895714,28.340536 122.572449,28.691128 
	C121.122780,30.321764 119.996384,31.601807 118.869987,32.881851 
	C118.869987,32.881847 118.407928,32.938400 117.807686,33.012310 
	C116.133522,33.090168 115.059601,33.094116 113.985680,33.098061 
	C113.840569,33.006264 113.695457,32.914467 113.091507,32.542854 
	C107.046906,33.131306 106.491524,37.881676 105.117889,42.000580 
	C105.030121,42.152405 104.942352,42.304230 104.556244,42.920685 
	C103.907700,44.929188 103.557495,46.473061 103.207291,48.016933 
	C103.086296,48.446918 102.965302,48.876900 102.582489,49.802711 
	C102.278893,50.872414 102.237114,51.446285 102.195335,52.020157 
	C102.077248,52.451981 101.959160,52.883801 101.611313,53.816925 
	C101.350174,54.886005 101.318787,55.453781 101.287399,56.021561 
	C101.186218,57.728233 101.085037,59.434906 100.984467,61.877258 
	C100.984566,63.048977 100.984039,63.485016 100.983513,63.921051 
z"/>
<path fill="#F6EDED" opacity="1.000000" stroke="none" 
	d="
M238.837723,64.466370 
	C234.125656,64.606552 233.890900,61.118160 234.869171,58.105598 
	C238.376602,47.304302 242.277817,36.629204 246.128906,25.941977 
	C247.689041,21.612423 249.503128,17.374388 251.217667,12.645466 
	C256.464722,13.502307 255.933380,17.225740 254.466171,20.814936 
	C252.022751,26.792171 248.756744,32.456512 246.609924,38.525955 
	C243.647552,46.901115 241.403030,55.530182 238.837723,64.466370 
z"/>
<path fill="#F2EAEA" opacity="1.000000" stroke="none" 
	d="
M338.084717,91.391884 
	C348.181458,90.569733 350.112610,88.517662 350.260254,78.006317 
	C350.356567,71.151169 350.808197,64.260651 355.318390,58.722061 
	C357.044220,56.602741 359.913910,55.049629 362.568573,54.229073 
	C363.653442,53.893738 365.550018,56.184235 367.023010,57.673515 
	C360.136841,59.829437 355.775116,65.742943 355.060089,74.418755 
	C354.734222,78.372772 354.698364,82.350258 354.396057,86.306778 
	C354.096649,90.225258 352.500275,93.381149 348.443359,94.577805 
	C344.487152,95.744766 340.916901,95.151306 338.084717,91.391884 
z"/>
<path fill="#F4EBEB" opacity="1.000000" stroke="none" 
	d="
M218.888580,59.060265 
	C213.217422,67.608994 205.619110,71.900955 195.110596,69.976166 
	C193.048111,69.598389 190.697754,70.087601 188.886139,69.273514 
	C187.498932,68.650146 186.751541,66.602966 186.102707,64.523384 
	C194.097824,66.062469 201.657501,67.029770 208.251480,61.807438 
	C214.874146,56.562366 216.457153,49.653637 214.366058,41.380939 
	C215.412338,41.719677 216.197372,42.374130 216.982422,43.028584 
	C217.260284,43.520721 217.538132,44.012859 217.930420,45.035797 
	C218.376205,46.033947 218.707565,46.501293 219.038925,46.968636 
	C219.061752,47.419571 219.084564,47.870499 219.153137,49.070442 
	C219.095444,52.899723 218.992020,55.979992 218.888580,59.060265 
z"/>
<path fill="#F1E8E8" opacity="1.000000" stroke="none" 
	d="
M437.095581,64.962662 
	C431.931488,69.212746 426.378998,71.945908 419.409088,69.937988 
	C417.688049,69.442192 415.778809,69.170753 414.012329,69.350166 
	C410.261993,69.731071 409.665649,67.542061 409.300232,63.957706 
	C411.766205,64.417740 413.818970,64.662758 415.795410,65.192429 
	C426.360657,68.023796 440.186768,59.116623 438.051147,46.143269 
	C437.952118,45.541348 438.292786,44.867046 438.749115,43.935478 
	C440.048004,44.848534 441.026459,46.052574 442.010315,47.901802 
	C442.213898,49.054790 442.412140,49.562595 442.610352,50.070396 
	C442.685272,51.114410 442.760193,52.158421 442.621887,53.854012 
	C440.637665,57.991283 438.866608,61.476974 437.095581,64.962662 
z"/>
<path fill="#F7EBED" opacity="1.000000" stroke="none" 
	d="
M180.921692,90.414909 
	C188.254776,91.136841 195.809357,91.696396 202.510056,87.566956 
	C207.383575,84.563545 211.722839,80.693169 216.872589,76.773758 
	C216.743179,79.268867 216.623108,81.583687 216.390320,84.216232 
	C209.896454,91.122566 202.334702,95.575653 192.977203,94.874260 
	C188.922897,94.570381 185.024780,92.182449 180.921692,90.414909 
z"/>
<path fill="#382427" opacity="1.000000" stroke="none" 
	d="
M175.733582,47.094070 
	C174.441284,51.018269 172.952621,55.046589 171.111572,58.906834 
	C169.297607,62.710247 166.481903,65.373291 161.466431,64.656998 
	C161.774460,61.811096 162.271774,59.359882 163.159668,57.059429 
	C167.694382,45.310516 172.414932,33.632751 176.879028,21.857512 
	C178.238510,18.271473 179.573914,14.281786 174.156036,12.472311 
	C172.962204,8.667747 170.219482,8.170182 166.422501,9.030190 
	C167.893082,8.498720 170.020660,7.142548 171.616013,7.608516 
	C178.158890,9.519545 181.026672,16.286270 178.589523,22.647633 
	C174.618195,33.013397 170.698151,43.399906 166.901367,53.830410 
	C166.246002,55.630810 166.308167,57.692387 166.038895,59.633324 
	C166.614334,59.816956 167.189774,60.000587 167.765213,60.184219 
	C170.304443,55.831005 172.843658,51.477795 175.733582,47.094070 
z"/>
<path fill="#F5EDED" opacity="1.000000" stroke="none" 
	d="
M368.769012,91.363037 
	C380.894989,91.947945 387.373138,84.046585 393.443268,73.708092 
	C394.250977,76.591164 394.786377,78.502174 395.340088,80.804733 
	C391.875854,87.171722 387.641541,92.333542 380.671051,94.406242 
	C376.279999,95.711929 372.173920,95.527008 368.769012,91.363037 
z"/>
<path fill="#F4EBEC" opacity="1.000000" stroke="none" 
	d="
M147.911896,91.171219 
	C159.571152,92.139259 164.479782,83.531830 170.208420,74.503014 
	C171.166672,77.111015 171.855148,78.984802 172.706024,81.128975 
	C169.782516,85.010178 167.070358,89.052109 163.521469,92.128891 
	C158.434265,96.539345 152.947495,96.003174 147.911896,91.171219 
z"/>
<path fill="#130D0E" opacity="1.000000" stroke="none" 
	d="
M73.111931,28.404432 
	C69.923088,34.330944 66.462509,40.282761 62.730541,46.059242 
	C62.132774,46.984482 60.320827,47.125278 59.089924,46.936996 
	C57.271725,32.898346 58.654125,30.695044 69.940941,28.982143 
	C70.877388,28.778648 71.813843,28.575151 73.111931,28.404432 
z"/>
<path fill="#F5EAEA" opacity="1.000000" stroke="none" 
	d="
M254.904846,90.947021 
	C267.161591,92.481262 272.408295,83.349815 278.953094,73.850082 
	C278.953094,78.129471 278.953094,80.990692 278.962769,84.278778 
	C275.812775,87.585037 272.982391,90.991676 269.415680,93.219437 
	C264.157104,96.503914 259.583862,95.538643 254.904846,90.947021 
z"/>
<path fill="#F6ECED" opacity="1.000000" stroke="none" 
	d="
M86.018303,91.386902 
	C96.712128,91.948257 103.332695,85.816704 109.400925,77.078835 
	C110.083817,79.686729 110.588707,81.614830 111.153458,83.935364 
	C106.919136,87.705048 103.000916,91.836365 98.213066,94.223511 
	C94.308762,96.170120 89.401955,95.859322 86.018303,91.386902 
z"/>
<path fill="#F7EEEE" opacity="1.000000" stroke="none" 
	d="
M298.840271,64.563324 
	C293.950043,64.750183 293.639221,61.374722 294.703552,58.028542 
	C296.189423,53.357273 298.429962,48.930351 300.231445,44.353176 
	C301.007446,42.381508 301.492584,40.295349 302.153778,37.840904 
	C307.660522,38.386868 306.936066,42.202106 305.667877,45.744179 
	C304.119080,50.070087 301.931396,54.163105 300.220612,58.437126 
	C299.498749,60.240456 299.289185,62.248856 298.840271,64.563324 
z"/>
<path fill="#F5ECED" opacity="1.000000" stroke="none" 
	d="
M222.190903,90.459236 
	C232.800827,91.839401 234.366074,91.061859 247.095688,77.420609 
	C247.474838,79.918892 247.784470,81.958969 248.116089,84.375847 
	C244.217117,90.341019 239.387329,95.054749 232.203812,94.822212 
	C228.857208,94.713875 225.588348,92.203094 222.190903,90.459236 
z"/>
<path fill="#F4E9EA" opacity="1.000000" stroke="none" 
	d="
M70.042915,28.567093 
	C58.654125,30.695044 57.271725,32.898346 58.978207,46.655640 
	C53.991169,43.158901 53.533939,37.883259 54.486324,32.319759 
	C55.311649,27.498497 58.682240,25.469110 63.297085,25.140789 
	C67.086006,24.871229 65.826660,22.050119 65.939178,19.502901 
	C70.506592,20.627293 70.308449,24.397711 70.042915,28.567093 
z"/>
<path fill="#F7ECED" opacity="1.000000" stroke="none" 
	d="
M117.869141,91.412277 
	C129.098175,92.129562 134.985016,84.617943 140.120804,75.929192 
	C140.553925,76.121216 140.987045,76.313248 141.420166,76.505280 
	C141.420166,78.982964 141.420166,81.460640 141.347702,84.260757 
	C138.820908,87.235641 136.666870,90.276779 133.846695,92.455688 
	C128.743240,96.398682 123.594215,95.938736 117.869141,91.412277 
z"/>
<path fill="#F4EBEB" opacity="1.000000" stroke="none" 
	d="
M285.228638,91.229973 
	C294.750641,91.959793 300.106537,85.776695 305.295685,78.178116 
	C305.988739,81.009384 306.509125,83.135300 307.088013,85.641037 
	C304.530548,88.477493 302.199768,91.376137 299.233612,93.290009 
	C294.456360,96.372429 289.741150,95.501610 285.228638,91.229973 
z"/>
<path fill="#F4EBEB" opacity="1.000000" stroke="none" 
	d="
M327.904724,64.443756 
	C326.566040,63.278500 324.165253,61.746037 324.101593,60.121964 
	C323.976257,56.924591 325.063385,53.656712 325.805023,50.454155 
	C326.737457,46.427891 327.826324,42.437866 329.013672,38.054665 
	C333.929138,38.666477 333.309082,42.356289 332.639984,45.483040 
	C331.749542,49.644150 330.082153,53.632919 328.938232,57.748447 
	C328.372681,59.783077 328.232056,61.935829 327.904724,64.443756 
z"/>
<path fill="#F1E9E9" opacity="1.000000" stroke="none" 
	d="
M324.016541,29.203306 
	C325.470306,28.827843 327.040253,28.740791 328.604370,28.802395 
	C336.059723,29.096037 339.165039,25.822182 340.637756,16.034458 
	C346.632263,21.033123 344.845795,29.982439 337.491974,32.241470 
	C332.644592,33.730545 327.969177,33.510010 324.016541,29.203306 
z"/>
<path fill="#F5EBEB" opacity="1.000000" stroke="none" 
	d="
M312.780762,91.615227 
	C321.138947,91.344185 327.468048,87.397758 332.387238,79.943626 
	C332.977600,82.970215 333.380219,85.034233 333.844910,87.462677 
	C330.678528,90.015823 327.677338,92.728424 324.161102,94.253731 
	C320.228241,95.959755 316.066406,95.476685 312.780762,91.615227 
z"/>
<path fill="#F2E7E8" opacity="1.000000" stroke="none" 
	d="
M384.995789,64.447250 
	C380.273193,64.455933 380.616425,60.906078 381.023651,57.845459 
	C381.410736,54.936356 382.792053,52.170834 383.326691,49.266781 
	C383.829498,46.535686 383.797455,43.706127 384.031555,40.473579 
	C388.239624,42.339024 389.477905,46.937920 387.739441,53.167233 
	C386.734558,56.768032 385.908386,60.418705 384.995789,64.447250 
z"/>
<path fill="#382427" opacity="1.000000" stroke="none" 
	d="
M219.256027,59.007370 
	C218.992020,55.979992 219.095444,52.899723 219.255096,49.394825 
	C221.690536,49.981270 222.331604,48.534866 223.080200,46.628571 
	C226.830887,37.077377 230.676468,27.562475 234.607574,18.084118 
	C235.209991,16.631634 236.432037,15.436139 237.713516,14.082645 
	C232.875900,27.325497 227.721771,40.619171 222.473755,53.875664 
	C221.765625,55.664383 220.585205,57.266140 219.256027,59.007370 
z"/>
<path fill="#382427" opacity="1.000000" stroke="none" 
	d="
M155.497467,25.041855 
	C154.510239,29.629107 153.183655,34.305550 151.544144,40.085106 
	C142.912781,31.120283 134.403030,32.825119 125.427750,38.030685 
	C129.405945,31.878532 142.015259,29.775604 147.692276,34.318291 
	C148.572647,35.022755 149.404068,35.788414 150.493469,36.728947 
	C152.143707,32.625904 153.650909,28.878475 155.497467,25.041855 
z"/>
<path fill="#382427" opacity="1.000000" stroke="none" 
	d="
M123.892014,13.902500 
	C122.768448,13.197635 121.705009,12.109262 120.333481,10.900814 
	C115.964561,3.959645 108.318642,3.396435 99.478676,6.470073 
	C95.332138,7.911813 91.681862,10.780811 87.466423,13.064194 
	C89.338982,7.658673 94.635712,6.287370 99.335312,4.994161 
	C107.456139,2.759522 115.770897,2.008119 122.011612,9.696968 
	C122.891884,10.781506 123.316574,12.235829 123.892014,13.902500 
z"/>
<path fill="#382B2C" opacity="1.000000" stroke="none" 
	d="
M437.451019,65.002716 
	C438.866608,61.476974 440.637665,57.991283 442.653381,54.247765 
	C445.829559,56.469059 448.823029,58.880386 451.654846,61.468616 
	C452.504822,62.245441 452.904144,63.515308 453.289368,64.768188 
	C451.972382,64.235870 450.875946,63.494675 449.427185,62.739868 
	C446.866180,57.839748 445.617645,57.627739 442.243347,61.302994 
	C440.945862,62.716194 439.295837,63.805740 437.451019,65.002716 
z"/>
<path fill="#382427" opacity="1.000000" stroke="none" 
	d="
M209.909500,35.696712 
	C203.252151,33.067520 196.505646,33.047802 189.327087,35.762413 
	C193.396469,31.006287 204.250732,30.776100 209.909500,35.696712 
z"/>
<path fill="#382427" opacity="1.000000" stroke="none" 
	d="
M116.714645,47.076706 
	C115.272995,51.282200 113.479149,55.514606 111.360641,59.890640 
	C112.811470,55.724052 114.586960,51.413837 116.714645,47.076706 
z"/>
<path fill="#382427" opacity="1.000000" stroke="none" 
	d="
M105.449577,41.938869 
	C106.491524,37.881676 107.046906,33.131306 112.834717,32.522934 
	C110.618263,35.814278 108.199760,38.845718 105.449577,41.938869 
z"/>
<path fill="#382427" opacity="1.000000" stroke="none" 
	d="
M160.638260,14.043564 
	C159.535645,17.223606 158.089859,20.460697 156.356735,23.891645 
	C157.477966,20.757206 158.886536,17.428909 160.638260,14.043564 
z"/>
<path fill="#382427" opacity="1.000000" stroke="none" 
	d="
M101.392227,63.992428 
	C100.984039,63.485016 100.984566,63.048977 101.071640,62.297260 
	C103.881119,61.662144 106.604050,61.342709 109.701126,61.049675 
	C107.317154,62.071991 104.559044,63.067898 101.392227,63.992428 
z"/>
<path fill="#382427" opacity="1.000000" stroke="none" 
	d="
M250.850937,9.848809 
	C248.540024,9.834970 246.214279,9.453719 243.469086,9.071741 
	C245.824203,5.809992 248.392410,6.464546 250.850937,9.848809 
z"/>
<path fill="#382427" opacity="1.000000" stroke="none" 
	d="
M165.646362,8.986898 
	C164.541367,10.590419 163.066818,12.166193 161.288513,13.861933 
	C162.415436,12.307650 163.846115,10.633401 165.646362,8.986898 
z"/>
<path fill="#382427" opacity="1.000000" stroke="none" 
	d="
M242.685684,9.025173 
	C241.593735,10.651090 240.127289,12.236734 238.355652,13.939547 
	C239.470703,12.366109 240.890945,10.675505 242.685684,9.025173 
z"/>
<path fill="#382427" opacity="1.000000" stroke="none" 
	d="
M123.488464,27.951847 
	C123.603134,26.196274 124.050247,24.372950 124.721840,22.281429 
	C124.571182,23.970186 124.196045,25.927139 123.488464,27.951847 
z"/>
<path fill="#382427" opacity="1.000000" stroke="none" 
	d="
M119.257645,32.933830 
	C119.996384,31.601807 121.122780,30.321764 122.538101,28.894871 
	C121.766449,30.160618 120.705872,31.573214 119.257645,32.933830 
z"/>
<path fill="#382427" opacity="1.000000" stroke="none" 
	d="
M103.524567,47.941132 
	C103.557495,46.473061 103.907700,44.929188 104.532356,43.182655 
	C104.485146,44.608440 104.163490,46.236889 103.524567,47.941132 
z"/>
<path fill="#382427" opacity="1.000000" stroke="none" 
	d="
M214.026245,39.569893 
	C212.740723,38.847206 211.447968,37.754623 210.047455,36.357536 
	C211.299469,37.102024 212.659225,38.151016 214.026245,39.569893 
z"/>
<path fill="#382427" opacity="1.000000" stroke="none" 
	d="
M114.048828,33.429077 
	C115.059601,33.094116 116.133522,33.090168 117.607674,33.131355 
	C116.709259,33.371025 115.410622,33.565556 114.048828,33.429077 
z"/>
<path fill="#382427" opacity="1.000000" stroke="none" 
	d="
M183.956055,38.330112 
	C183.437469,39.275700 182.565918,40.143299 181.386002,41.065964 
	C181.919449,40.164730 182.761261,39.208427 183.956055,38.330112 
z"/>
<path fill="#382427" opacity="1.000000" stroke="none" 
	d="
M217.003693,42.663361 
	C216.197372,42.374130 215.412338,41.719677 214.335358,40.958061 
	C214.043427,40.850906 214.056946,40.407990 214.061737,40.186531 
	C215.052658,40.742760 216.038803,41.520447 217.003693,42.663361 
z"/>
<path fill="#382427" opacity="1.000000" stroke="none" 
	d="
M125.200775,17.808407 
	C124.644852,17.209122 124.336197,16.420052 124.069572,15.305694 
	C124.557083,15.859811 125.002556,16.739216 125.200775,17.808407 
z"/>
<path fill="#382427" opacity="1.000000" stroke="none" 
	d="
M187.751404,36.038780 
	C187.077194,36.817490 186.040024,37.554356 184.680145,38.331337 
	C185.367767,37.579948 186.378098,36.788441 187.751404,36.038780 
z"/>
<path fill="#382427" opacity="1.000000" stroke="none" 
	d="
M86.767090,13.111533 
	C86.289963,14.044774 85.462532,14.956850 84.335983,15.967470 
	C84.830170,15.074131 85.623474,14.082250 86.767090,13.111533 
z"/>
<path fill="#382427" opacity="1.000000" stroke="none" 
	d="
M178.789932,43.104500 
	C178.602127,43.955196 178.069260,44.832802 177.239136,45.815102 
	C177.442886,44.990337 177.943893,44.060875 178.789932,43.104500 
z"/>
<path fill="#382427" opacity="1.000000" stroke="none" 
	d="
M118.740875,44.126205 
	C118.604584,44.998146 118.119843,45.904194 117.346214,46.936638 
	C117.502365,46.095463 117.947388,45.127888 118.740875,44.126205 
z"/>
<path fill="#382427" opacity="1.000000" stroke="none" 
	d="
M101.556396,55.981976 
	C101.318787,55.453781 101.350174,54.886005 101.621384,54.153450 
	C101.849274,54.639912 101.837334,55.291153 101.556396,55.981976 
z"/>
<path fill="#382427" opacity="1.000000" stroke="none" 
	d="
M102.474762,51.979012 
	C102.237114,51.446285 102.278893,50.872414 102.569168,50.138393 
	C102.796501,50.631451 102.775345,51.284660 102.474762,51.979012 
z"/>
<path fill="#382B2C" opacity="1.000000" stroke="none" 
	d="
M442.879700,49.970406 
	C442.412140,49.562595 442.213898,49.054790 442.083862,48.258797 
	C442.484406,48.603878 442.816742,49.237148 442.879700,49.970406 
z"/>
<path fill="#382427" opacity="1.000000" stroke="none" 
	d="
M219.245270,46.804302 
	C218.707565,46.501293 218.376205,46.033947 218.087982,45.277138 
	C218.571289,45.538441 219.011459,46.089207 219.245270,46.804302 
z"/>
<path fill="#382B2C" opacity="1.000000" stroke="none" 
	d="
M448.124146,74.802811 
	C448.080170,74.404266 448.311951,73.896400 448.803711,73.268188 
	C448.842407,73.663063 448.621155,74.178276 448.124146,74.802811 
z"/>
<path fill="#F5EBEB" opacity="1.000000" stroke="none" 
	d="
M311.798615,90.473694 
	C312.012604,90.342476 312.348846,90.516182 312.833191,90.933617 
	C312.627808,91.044441 312.274323,90.911522 311.798615,90.473694 
z"/>
<path fill="#382427" opacity="1.000000" stroke="none" 
	d="
M110.794632,60.117744 
	C110.892738,60.346718 110.746719,60.662113 110.334129,61.030205 
	C110.228539,60.789986 110.389519,60.497074 110.794632,60.117744 
z"/>
<path fill="#382427" opacity="1.000000" stroke="none" 
	d="
M176.678284,46.058174 
	C176.803391,46.277271 176.689499,46.598213 176.321106,47.002094 
	C176.190842,46.776691 176.315079,46.468353 176.678284,46.058174 
z"/>
<path fill="#382427" opacity="1.000000" stroke="none" 
	d="
M119.726715,43.099922 
	C119.837242,43.313610 119.711349,43.620670 119.339294,44.006851 
	C119.225525,43.788418 119.357918,43.490856 119.726715,43.099922 
z"/>
<path fill="#382427" opacity="1.000000" stroke="none" 
	d="
M120.679527,42.044647 
	C120.777466,42.268276 120.637337,42.563648 120.247406,42.913116 
	C119.992874,42.603931 120.140816,42.320328 120.679527,42.044647 
z"/>
<path fill="#382427" opacity="1.000000" stroke="none" 
	d="
M124.829819,38.110611 
	C124.900253,38.355579 124.717468,38.644474 124.265366,38.951546 
	C124.189568,38.697998 124.383080,38.426270 124.829819,38.110611 
z"/>
<path fill="#130D0E" opacity="1.000000" stroke="none" 
	d="
M73.984024,27.276163 
	C74.125771,27.490410 74.006401,27.808758 73.671257,28.270008 
	C73.544624,28.068693 73.633774,27.724478 73.984024,27.276163 
z"/>
<path fill="#130D0E" opacity="1.000000" stroke="none" 
	d="
M74.883781,26.174255 
	C74.980133,26.380695 74.839287,26.710812 74.438957,27.136600 
	C74.335175,26.920826 74.490875,26.609379 74.883781,26.174255 
z"/>
<path fill="#F6EEEF" opacity="1.000000" stroke="none" 
	d="
M174.093109,12.885269 
	C179.573914,14.281786 178.238510,18.271473 176.879028,21.857512 
	C172.414932,33.632751 167.694382,45.310516 163.159668,57.059429 
	C162.271774,59.359882 161.774460,61.811096 161.074997,64.576630 
	C155.965591,63.938953 156.582153,60.245735 157.729248,56.922176 
	C159.991928,50.366341 162.746902,43.982292 165.181610,37.483486 
	C168.193146,29.444962 171.086044,21.361990 174.093109,12.885269 
z"/>
<path fill="#F8EDEE" opacity="1.000000" stroke="none" 
	d="
M75.990669,55.810005 
	C74.411758,55.491867 72.832848,55.173729 70.026123,54.608192 
	C75.945099,45.150356 79.348434,34.955933 89.498398,28.607162 
	C91.456566,35.614262 86.227539,38.725513 83.708984,43.524403 
	C80.871582,47.923763 78.431122,51.866882 75.990669,55.810005 
z"/>
<path fill="#F8EAEA" opacity="1.000000" stroke="none" 
	d="
M268.959351,66.810638 
	C265.075714,66.387489 264.351471,63.428089 264.243073,60.408318 
	C264.094177,56.259041 267.733948,51.829857 271.974579,50.611599 
	C275.189087,49.688122 277.812500,50.360764 278.916138,54.099014 
	C271.353058,55.815636 268.817535,59.058544 268.959351,66.810638 
z"/>
<path fill="#1E1415" opacity="1.000000" stroke="none" 
	d="
M141.978683,54.594746 
	C144.029907,61.074875 139.434250,66.802048 131.700150,66.466110 
	C131.695145,58.074474 134.790771,54.759491 141.978683,54.594746 
z"/>
<path fill="#F8EBED" opacity="1.000000" stroke="none" 
	d="
M141.953430,54.196484 
	C134.790771,54.759491 131.695145,58.074474 131.312347,66.428650 
	C127.604866,65.977646 126.898026,63.193153 127.154922,59.992256 
	C127.523445,55.400627 131.209106,50.549881 135.213303,50.524700 
	C137.444656,50.510666 139.689438,52.636650 141.953430,54.196484 
z"/>
<path fill="#0F080A" opacity="1.000000" stroke="none" 
	d="
M269.349731,66.920135 
	C268.817535,59.058544 271.353058,55.815636 279.008423,54.492302 
	C280.630615,61.612156 277.177124,66.082451 269.349731,66.920135 
z"/>
<path fill="#F7EAEC" opacity="1.000000" stroke="none" 
	d="
M415.927338,56.899864 
	C414.608826,55.335369 411.898651,53.258816 412.248444,52.308193 
	C413.094086,50.010017 415.006104,47.496128 417.159668,46.445427 
	C419.695160,45.208389 422.736267,45.871357 423.533539,49.722908 
	C418.961578,50.469936 416.224243,52.388653 415.927338,56.899864 
z"/>
<path fill="#F8ECED" opacity="1.000000" stroke="none" 
	d="
M192.688461,56.877777 
	C191.411316,55.292583 188.845642,53.391678 189.139725,52.191467 
	C189.664627,50.049141 191.552551,47.632431 193.532501,46.600651 
	C196.349258,45.132786 199.292969,46.007473 200.467758,49.705120 
	C195.822906,50.356625 193.030106,52.279949 192.688461,56.877777 
z"/>
<path fill="#140D0E" opacity="1.000000" stroke="none" 
	d="
M76.418243,55.848671 
	C78.431122,51.866882 80.871582,47.923763 83.641724,43.852505 
	C83.397133,47.235828 83.206718,50.884903 82.025795,54.178875 
	C81.648239,55.232025 78.646751,55.344479 76.418243,55.848671 
z"/>
<path fill="#382325" opacity="1.000000" stroke="none" 
	d="
M193.092682,57.000778 
	C193.030106,52.279949 195.822906,50.356625 200.489624,50.065475 
	C200.963181,55.080013 198.098328,57.007423 193.092682,57.000778 
z"/>
<path fill="#342024" opacity="1.000000" stroke="none" 
	d="
M416.323578,56.992165 
	C416.224243,52.388653 418.961578,50.469936 423.519104,50.096283 
	C424.297607,55.297062 421.246857,56.947422 416.323578,56.992165 
z"/>
</svg>